<svg width="206" height="80" viewBox="0 0 206 80" fill="none" xmlns="http://www.w3.org/2000/svg">
    <g clip-path="url(#clip0_305_85)">
        <path d="M41.4642 73.8396C41.2984 73.6795 40.9739 73.3956 40.7431 73.2088L40.3233 72.8693L39.9919 72.1393L39.6604 71.4093V70.8187V70.2281L40.0202 69.4681L40.3801 68.7081L40.9744 68.2543L41.5688 67.8004L42.2418 67.7079L42.9149 67.6153L43.4947 67.7117C44.2633 67.8394 44.6722 68.0613 45.2672 68.6739L45.7613 69.1827L45.9563 70.0377L46.1514 70.8926L45.9504 71.6905L45.7494 72.4883L45.2079 73.0462C44.91 73.3531 44.5485 73.6416 44.4044 73.6873L44.1425 73.7704V73.965V74.1596L42.9541 74.1453L41.7656 74.131L41.4642 73.8396ZM41.5662 62.1874L40.9594 62.0436L40.3864 61.6494L39.8134 61.2551L39.3466 60.6785C39.0899 60.3614 38.7556 59.8166 38.6037 59.468L38.3274 58.8342L38.2332 57.7703L38.139 56.7063L37.7791 55.9771L37.4193 55.248L36.7432 54.6383L36.0671 54.0285L35.385 53.6942L34.7028 53.3598L33.5344 53.2458L32.3659 53.1319L31.63 52.7165L30.894 52.3012L30.4774 51.8552C30.2483 51.6099 29.8924 51.1135 29.6866 50.7522L29.3124 50.0951L29.2074 48.9865L29.1023 47.8778L28.7651 47.1307L28.4279 46.3837L27.8098 45.6997L27.1917 45.0157L26.4651 44.657L25.7385 44.2984L24.7198 44.2042L23.7011 44.1099L23.0244 43.8442L22.3477 43.5784L21.6406 42.9743L20.9334 42.3702L20.5516 41.5925L20.1697 40.815V39.5246V38.2343L20.5021 37.5587L20.8346 36.8832L21.4228 36.295L22.011 35.7068L22.9027 35.3067L23.7943 34.9066L24.6985 34.9121L25.6026 34.9175L26.3221 35.2281L27.0415 35.5386L27.7298 36.1394L28.4181 36.7402L28.8135 37.6095L29.2089 38.4787L29.2927 39.511L29.3766 40.5433L29.7535 41.2903L30.1304 42.0373L30.8546 42.7427L31.5789 43.4481L32.258 43.7407L32.9371 44.0333L33.5483 44.0439L34.1595 44.0546L34.9065 43.8061L35.6536 43.5576L36.129 43.2054C36.8455 42.6745 37.2998 42.1611 37.7418 41.3826L38.1414 40.6791L38.2368 39.5925L38.3323 38.5059L38.7054 37.691L39.0785 36.876L39.675 36.279L40.2716 35.6819L41.0915 35.3129L41.9115 34.9439L42.993 34.8449L44.0746 34.7458L44.7537 34.3555C45.1273 34.1409 45.6526 33.7611 45.9211 33.5115L46.4093 33.0576L46.7601 32.4541L47.1109 31.8506L47.2543 31.0356L47.3978 30.2207L47.2138 29.4383L47.0298 28.6559L46.6497 28.1073L46.2695 27.5587L45.6474 27.0525C45.3053 26.774 44.7504 26.4172 44.4142 26.2596L43.803 25.973L42.732 25.8824L41.6609 25.7918L40.8983 25.4053L40.1357 25.0189L39.6091 24.4958L39.0824 23.9728L38.6923 23.1112L38.3021 22.2497V21.2606V20.2715L38.6312 19.5273L38.9603 18.7832L39.6159 18.1118L40.2716 17.4404L40.8988 17.1378L41.526 16.8352L42.4085 16.7528L43.291 16.6704L44.0224 16.8389L44.7537 17.0074L45.2897 17.3662C45.9902 17.835 46.3094 18.1507 46.7514 18.8115L47.1147 19.3548L47.315 20.2377C47.4252 20.7232 47.5776 21.501 47.6537 21.966L47.792 22.8115L48.2145 23.4255C48.4468 23.7632 48.8634 24.2605 49.1402 24.5307L49.6434 25.0219L50.3904 25.3617L51.1374 25.7015L52.2356 25.8082L53.3338 25.915L54.0075 26.2564L54.6813 26.5978L55.268 27.1846L55.8548 27.7714L56.1885 28.5206L56.5222 29.2699L56.6365 30.3565L56.7508 31.4431L57.0951 32.1283L57.4395 32.8134L57.9136 33.3016C58.1744 33.5701 58.6817 33.9895 59.041 34.2337L59.6943 34.6777L60.8488 34.8091L62.0033 34.9405L62.7181 35.2209L63.4329 35.5013L64.1478 36.1384L64.8626 36.7756L65.2617 37.5644L65.6609 38.3532V39.5246V40.696L65.2745 41.4595L64.8882 42.2231L64.3441 42.7893L63.8 43.3556L62.923 43.7491L62.0459 44.1426H61.1247H60.2035L59.4322 43.8015C58.579 43.4242 58.4408 43.3283 57.8025 42.6713L57.3629 42.2187L57.0077 41.5168L56.6525 40.8149L56.559 39.8641L56.4655 38.9134L56.1302 38.0649L55.7948 37.2165L54.9464 36.3671L54.0981 35.5178L53.4145 35.2801L52.7309 35.0424H52.0745H51.4182L50.8024 35.2685C49.7653 35.6492 48.8937 36.3681 48.1739 37.4362L47.7965 37.9964L47.5396 39.4057C47.2034 41.2506 47.1053 41.5476 46.6039 42.2398C46.0946 42.9428 45.5287 43.3831 44.5958 43.8022L43.8945 44.1172L42.8509 44.215L41.8074 44.3128L41.0437 44.7203L40.28 45.1278L39.6838 45.7557L39.0875 46.3837L38.7662 47.1058L38.4449 47.8279L38.3601 48.4675L38.2752 49.1072L38.6325 49.9865L38.9898 50.8658L39.6986 51.5901L40.4074 52.3143L41.1554 52.696L41.9035 53.0776L42.9891 53.1761L44.0746 53.2747L44.8217 53.615L45.5687 53.9554L46.2119 54.6387L46.8552 55.322L47.1161 56.0195C47.2596 56.4031 47.4183 56.992 47.4687 57.3281L47.5604 57.9394L47.3365 58.8169L47.1125 59.6944L46.7619 60.2377C46.3058 60.9443 45.5776 61.5982 44.8539 61.9509L44.2749 62.233L43.224 62.2821L42.1731 62.3312L41.5662 62.1874ZM23.6855 60.8642L23.2624 60.7549L22.7842 60.3901C22.5211 60.1895 22.1518 59.7981 21.9634 59.5203L21.6209 59.0153L21.5281 58.4354L21.4353 57.8555L21.5293 57.1715L21.6234 56.4875L22.0511 55.9285L22.4787 55.3694L23.1466 54.9597L23.8145 54.5501H24.6513H25.4882L26.0208 54.8688C26.7818 55.3242 27.2546 55.7911 27.597 56.4252L27.8954 56.9779L27.8957 57.7929L27.896 58.6078L27.5753 59.1511C27.1545 59.8642 26.7902 60.2631 26.2616 60.5898L25.8292 60.857L24.9689 60.9153L24.1087 60.9735L23.6856 60.8642H23.6855ZM60.0228 60.8045L59.5363 60.6452L59.1233 60.3056C58.8962 60.1189 58.548 59.7159 58.3496 59.4102L57.9888 58.8544L57.9101 58.1878L57.8314 57.5212L57.9799 56.9707L58.1284 56.4202L58.6256 55.8394L59.1228 55.2585L59.6802 54.9038L60.2376 54.5491L61.1205 54.5522L62.0033 54.5553L62.6824 54.9593L63.3616 55.3633L63.7893 56.0123L64.217 56.6613L64.306 57.2546L64.395 57.8479L64.3014 58.3637L64.2078 58.8794L63.8911 59.4227L63.5745 59.966L63.1178 60.3267L62.6612 60.6874L62.1285 60.8353C61.457 61.0217 60.65 61.0099 60.0228 60.8045V60.8045ZM50.73 53.1511C50.352 53.0466 49.2985 52.4302 48.9255 52.0953C48.7547 51.9421 48.4399 51.5628 48.2259 51.2525L47.8367 50.6884L47.6195 49.9413L47.4023 49.1942V48.6248V48.0554L47.6157 47.3214L47.829 46.5875L48.367 45.9068L48.905 45.2262L49.6698 44.7184L50.4345 44.2105H51.9405H53.4464L53.9524 44.4621C54.2307 44.6005 54.7381 44.9599 55.08 45.2608L55.7015 45.8079L56.1219 46.6391L56.5423 47.4703L56.6091 48.3942L56.6758 49.318L56.2962 50.2609L55.9166 51.2038L55.325 51.8039L54.7334 52.404L54.0899 52.7831L53.4464 53.1623L52.224 53.1943C51.5517 53.2119 50.8794 53.1922 50.73 53.1511V53.1511ZM90.696 49.1586L90.4583 49.0188L90.4604 39.6197L90.4624 30.2207L90.591 30.017L90.7197 29.8133L93.8943 29.7725L97.069 29.7317L97.2611 29.9631L97.4532 30.1944L97.4871 39.3757L97.5211 48.5569L97.3474 48.8965L97.1737 49.236L94.0537 49.2673L90.9337 49.2985L90.696 49.1587L90.696 49.1586ZM101.821 49.0555L101.596 48.8071V39.501V30.1949L101.844 29.9701L102.093 29.7453H104.635H107.178L107.571 29.9483C107.786 30.0599 108.043 30.2651 108.141 30.4042C108.343 30.6905 109.431 31.9739 109.756 32.3089C109.874 32.4304 110.318 32.9704 110.742 33.509C111.167 34.0476 111.664 34.6505 111.848 34.8488C112.032 35.0471 112.929 36.1192 113.842 37.2312L115.501 39.253H115.747H115.993L115.997 39.0153C115.999 38.8846 115.997 36.897 115.993 34.5984L115.986 30.4193L116.323 30.0823L116.66 29.7453H119.45H122.241L122.513 30.017L122.784 30.2886V39.5246V48.7606L122.513 49.0323L122.241 49.3039H119.583H116.926L116.668 49.166L116.411 49.0281L114.752 47.0268C113.84 45.9261 112.944 44.8727 112.761 44.6859C112.578 44.4992 112.102 43.9185 111.703 43.3956C111.304 42.8727 110.724 42.1698 110.415 41.8336C110.106 41.4975 109.575 40.871 109.236 40.4414L108.619 39.6604H108.449H108.28L108.194 39.8859L108.107 40.1113L108.121 44.5324L108.135 48.9536L107.895 49.1287L107.656 49.3039H104.851H102.045L101.821 49.0555ZM127.131 49.2049C127.019 49.1623 126.882 49.0601 126.827 48.9779L126.727 48.8285V39.5246V30.2207L126.856 30.017L126.985 29.8133L129.779 29.7715L132.574 29.7297L133.01 30.0966C133.25 30.2984 133.783 30.8773 134.193 31.3829C134.604 31.8885 136.182 33.7987 137.7 35.6277C139.217 37.4567 140.538 39.0611 140.634 39.193L140.81 39.4329L141.033 39.3472L141.256 39.2615V34.775V30.2886L141.528 30.0169L141.8 29.7453H144.584H147.368L147.64 30.0169L147.912 30.2886V39.5246V48.7606L147.64 49.0322L147.368 49.3039L144.754 49.3028L142.139 49.3018L141.785 49.065L141.431 48.8282L137.722 44.3461L134.014 39.8639H133.73H133.446L133.413 44.3461L133.38 48.8282L133.092 49.0659L132.805 49.3036L130.07 49.2929C128.565 49.2871 127.243 49.2474 127.131 49.2047L127.131 49.2049ZM152.127 49.0412L151.986 48.7785V39.4753V30.1722L152.2 29.9588L152.413 29.7453H160.679H168.945L169.158 29.9588L169.372 30.1722V32.3956V34.619L169.219 34.7134L169.066 34.8078L164.227 34.782L159.389 34.7563L159.152 34.9334L158.915 35.1104L158.83 35.7393L158.745 36.3682L159.036 36.6592L159.327 36.9501L163.908 36.9403L168.489 36.9304L168.727 37.2239L168.964 37.5174V39.4718V41.4262L168.693 41.6978L168.421 41.9695H163.82H159.218L159.032 42.1944L158.845 42.4193L158.853 43.1616L158.86 43.9038L159.117 44.0911L159.373 44.2785H164.559H169.746L169.895 44.4578L170.044 44.6371L169.911 46.2574C169.839 47.1486 169.748 48.0657 169.71 48.2954L169.64 48.713L169.365 49.0085L169.09 49.3039H160.679H152.268L152.127 49.0412V49.0412ZM173.293 49.0793L173.107 48.8547V39.4928V30.1309L173.371 29.9381L173.634 29.7453L178.803 29.7513L183.973 29.7572L184.924 29.8775C185.446 29.9436 186.375 30.0902 186.986 30.2032L188.099 30.4088L188.827 30.742C190.268 31.401 191.078 32.1251 191.816 33.4125L192.167 34.0237L192.334 35.0826L192.501 36.1415L192.419 37.1879L192.337 38.2343L192.151 38.8455C192.049 39.1816 191.802 39.7156 191.602 40.032L191.238 40.6074L190.352 41.3041L189.465 42.0008L189.556 42.2907C189.607 42.4501 189.765 42.7334 189.908 42.9202C190.142 43.2257 190.506 43.7846 191.897 45.9762C192.501 46.929 192.552 47.0049 192.934 47.5382C193.121 47.7996 193.365 48.2066 193.476 48.4425L193.677 48.8715L193.851 48.9333L194.024 48.995L193.911 49.1155L193.798 49.236L190.332 49.2785L186.865 49.3211L186.59 49.0748C186.304 48.8189 185.127 47.1016 185.127 46.9401C185.127 46.8895 185.015 46.6825 184.877 46.4801C184.739 46.2777 184.473 45.8676 184.286 45.5688C184.099 45.27 183.722 44.6779 183.449 44.2532L182.951 43.4809L182.647 43.3841L182.343 43.2874L181.216 43.2843L180.09 43.2812L179.884 43.4867L179.679 43.6922L179.653 46.2733L179.626 48.8544L179.44 49.0789L179.254 49.3034H176.367H173.48L173.293 49.0788L173.293 49.0793ZM184.823 38.1028L185.537 37.7703L185.672 37.4162L185.806 37.0621V36.4441V35.8261L185.321 35.3813L184.835 34.9365L184.421 34.8536C184.193 34.8081 183.105 34.7708 182.003 34.7708H179.999L179.85 34.9505L179.701 35.1303L179.684 36.5841L179.667 38.0379L179.833 38.238L179.999 38.438L182.054 38.4365L184.109 38.4349L184.823 38.1024L184.823 38.1028ZM10.5228 42.5326C10.222 42.4096 9.75481 42.1386 9.48446 41.9303L8.99293 41.5516L8.8263 41.1493L8.65967 40.747H8.47241H8.28516V39.5246V38.3022H8.45961H8.63406L8.89264 37.8644C9.03487 37.6237 9.3326 37.2722 9.55427 37.0835L9.95731 36.7402L10.5813 36.5131L11.2054 36.2859H11.6128H12.0203L12.6707 36.5152L13.3211 36.7445L13.931 37.3455L14.5408 37.9465L14.6388 38.2941C14.6927 38.4853 14.734 39.1094 14.7305 39.6811L14.7243 40.7204L14.3554 41.2526C13.9005 41.9091 13.3706 42.3101 12.6062 42.5764L12.0203 42.7804L11.5449 42.7683L11.0695 42.7562L10.5228 42.5326V42.5326ZM72.982 42.5002L72.2798 42.2302L71.8076 41.7075L71.3353 41.1848L71.1084 40.4042L70.8815 39.6236L71.0447 38.929C71.2529 38.0426 71.4575 37.6475 71.9511 37.1784L72.3476 36.8016L73.0818 36.5332C73.4857 36.3856 73.9707 36.2648 74.1595 36.2648C74.3484 36.2648 74.8333 36.3856 75.2372 36.5332L75.9715 36.8016L76.3734 37.1784L76.7753 37.5552L77.0973 38.2721L77.4193 38.989V39.5172V40.0454L77.1392 40.7018L76.8592 41.3582L76.4331 41.8L76.0071 42.2417L75.282 42.513L74.5568 42.7843L74.1205 42.7773L73.6841 42.7702L72.982 42.5002V42.5002ZM32.2939 34.7798C31.2873 34.4539 30.3262 33.6284 29.6744 32.5297L29.2715 31.8506L29.2707 30.4244L29.2698 28.9983L29.6656 28.3192C30.2131 27.3795 30.6317 26.9539 31.5788 26.3736L32.3938 25.8743L33.752 25.8769L35.1102 25.8795L35.8034 26.2475L36.4965 26.6155L37.0292 27.1956C37.3222 27.5147 37.7132 28.0202 37.898 28.319L38.2342 28.8623V30.3564V31.8504L37.8427 32.5296C37.3372 33.4063 36.9024 33.8668 36.0846 34.3916L35.4226 34.8164L34.044 34.8582L32.6654 34.8999L32.2938 34.7796L32.2939 34.7798ZM23.7184 24.3923C23.072 24.1524 22.3055 23.5489 21.9104 22.9686L21.6137 22.5329L21.5219 21.7985L21.4302 21.0641L21.5967 20.3699L21.7632 19.6757L22.4226 19.0164L23.0819 18.3571L23.842 18.1993L24.602 18.0415L25.2686 18.1332L25.9353 18.2248L26.5358 18.6833L27.1362 19.1418L27.5133 19.7916L27.8904 20.4414L27.8949 21.2563L27.8993 22.0713L27.6118 22.6146L27.3242 23.1579L26.8709 23.5748C26.6216 23.8042 26.2531 24.0935 26.0521 24.2179L25.6866 24.4439L24.9655 24.5157L24.2444 24.5874L23.7184 24.3923H23.7184ZM60.3808 24.493C59.6959 24.2986 58.693 23.4762 58.2558 22.7504L57.9286 22.2071V21.2563V20.3056L58.2522 19.7851C58.8649 18.7996 59.5557 18.3006 60.5319 18.1384L61.0978 18.0444L61.7236 18.1383L62.3494 18.2321L62.8928 18.5971L63.4361 18.962L63.7915 19.485L64.1469 20.008L64.2717 20.5636L64.3966 21.1192L64.3071 21.7697L64.2176 22.4202L63.7896 23.0541L63.3616 23.6879L62.6879 24.0808L62.0143 24.4737L61.3297 24.5209C60.9532 24.5468 60.5262 24.5343 60.3808 24.493V24.493ZM41.8773 11.2871L41.4456 11.1758L40.8733 10.7225L40.3009 10.2692L39.9807 9.54501L39.6604 8.82078V8.23035V7.63992L39.9919 6.90995L40.3233 6.17997L40.7438 5.84042C40.975 5.65366 41.3176 5.36333 41.505 5.19525L41.8459 4.88965H42.9306H44.0152L44.0954 5.09841L44.1755 5.30717L44.5758 5.5142C44.796 5.62807 45.1512 5.91614 45.365 6.15434L45.7539 6.58744L45.9601 7.40159L46.1663 8.21574L45.9572 9.0479L45.7482 9.88006L45.251 10.392C44.9775 10.6736 44.6223 10.9902 44.4617 11.0955L44.1696 11.2869L43.2392 11.3426L42.3089 11.3984L41.8773 11.2871Z" fill="white"></path>
    </g>
    <defs>
        <clipPath id="clip0_305_85">
            <rect width="205.637" height="80" fill="white"></rect>
        </clipPath>
    </defs>
</svg>